PathFileType	4	(X/Y/Z)	C:/Users/beibeiliu/ov580/test_trc/User2\sequence.13_training_dense_left.trc
DataRate	CameraRate	NumFrames	NumMarkers	Units	OrigDataRate	OrigDataStartFrame	OrigNumFrames
120	120	15	19	mm	120	1	62
Frame#	Time	ThumbCMC			ThumbMCP			ThumbIP			ThumbTip			IndexMCP			IndexPIP			IndexTip			MiddleMCP			MiddlePIP			MiddleTip			RingMCP			RingPIP			RingTip			PinkyMCP			PinkyPIP			PinkyTip			BackHand1			BackHand2			BackHand3	
		X0	Y0	Z0	X1	Y1	Z1	X2	Y2	Z2	X3	Y3	Z3	X4	Y4	Z4	X5	Y5	Z5	X6	Y6	Z6	X7	Y7	Z7	X8	Y8	Z8	X9	Y9	Z9	X10	Y10	Z10	X11	Y11	Z11	X12	Y12	Z12	X13	Y13	Z13	X14	Y14	Z14	X15	Y15	Z15	X16	Y16	Z16	X17	Y17	Z17	X18	Y18	Z18	
0	0	-211.322	63.7728	1.81819	-199.933	50.2672	-35.2445	-190.245	46.513	-70.4893	-193.062	41.4911	-99.7542	-245.269	119.857	-48.2693	-242.542	137.85	-67.3294	-246.463	160.684	-88.5197	-258.605	103.655	-71.0702	-252.919	108.546	-103.203	-245.762	108.963	-134.307	-256.337	77.6052	-80.0964	-236.847	63.9078	-97.7309	-215.473	37.8885	-85.21	-278.524	63.3061	-71.0013	-271.678	69.6783	-92.1701	-263.896	82.6639	-113.707	-281.448	67.4654	-19.3066	-281.739	49.9086	15.4124	-257.105	81.758	7.97432	
1	0.00833333	-205.356	52.7924	-0.0235038	-195.549	35.3308	-35.0816	-194.543	25.8316	-67.5023	-193.971	17.1343	-95.8773	-231.788	107.428	-55.7691	-229.191	123.466	-79.5333	-229.992	140.085	-102.555	-248.314	92.7231	-75.7555	-244.675	93.33	-104.229	-238.254	86.7295	-138.671	-255.694	62.3933	-80.232	-233.683	46.2408	-96.4124	-213.298	17.0445	-77.4852	-272.737	52.432	-64.7998	-266.647	56.5438	-96.9051	-261.37	61.469	-116.323	-274.224	60.7108	-15.3392	-274.043	53.4165	16.7482	-244.505	78.2408	5.12377	
2	0.0166667	-200.519	49.5202	3.74844	-188.764	27.6838	-25.8492	-182.446	12.055	-62.9609	-181.191	-0.0187046	-80.333	-223.461	92.0369	-68.7765	-224.139	96.4486	-91.2357	-221.728	108.792	-114.954	-245.196	68.024	-79.252	-237.311	63.3345	-111.266	-226.716	53.1467	-140.386	-245.507	43.3247	-78.32	-221.288	20.1819	-92.5377	-203.457	1.20833	-68.5942	-265.115	29.783	-66.5439	-256.696	26.0088	-94.6302	-246.83	26.077	-116.133	-269.682	48.2049	-18.2453	-268.386	46.4382	14.6686	-243.031	70.2124	2.49166	
3	0.025	-204.495	59.4122	-2.02837	-183.996	35.4959	-22.0345	-168.13	16.8703	-48.7317	-156.685	3.38274	-62.8164	-231.065	66.8859	-79.8482	-226.633	70.7811	-106.318	-227.418	66.407	-128.578	-238.834	40.5766	-83.6057	-224.564	28.7671	-115.227	-208.175	15.3269	-138.213	-231.333	17.8713	-80.066	-201.714	3.31544	-85.5923	-182.276	1.17543	-59.833	-244.314	3.33476	-61.3449	-231.975	-1.93329	-88.4026	-222.226	-6.51815	-109.903	-263.357	26.2892	-25.3616	-271.165	28.1874	8.25482	-251.931	61.3818	-9.7932	
4	0.0333333	-225.693	64.61	-3.69223	-189.231	53.5895	-21.8252	-160.872	45.0642	-39.5537	-141.48	34.5268	-52.4465	-238.845	50.2007	-84.6883	-231.694	46.8968	-108.629	-226.508	44.0847	-134.924	-227.548	21.2108	-91.2212	-204.165	14.7142	-113.997	-183.675	7.77651	-130.508	-211.928	1.43389	-74.3794	-178.121	9.90345	-76.2128	-166.408	20.6388	-44.5611	-218.415	-15.4722	-58.1891	-203.253	-12.2155	-78.8885	-188.988	-16.3382	-100.103	-255.454	4.66134	-27.1922	-267.805	13.6902	1.84944	-263.015	42.67	-19.1017	
5	0.0416667	-241.576	65.2735	-14.3041	-204.712	70.3889	-23.6541	-171.892	71.4981	-40.8742	-148.24	73.7532	-49.164	-241.223	40.2023	-88.6547	-227.437	34.174	-115.609	-221.006	33.8486	-138.174	-213.716	15.8065	-88.2665	-191.437	19.5113	-109.578	-163.74	20.1137	-124.525	-193.942	8.51244	-70.1329	-166.362	29.4471	-69.4676	-164.63	48.993	-43.3378	-197.02	-6.3498	-53.3813	-180.968	-1.46803	-70.9476	-162.107	-0.870936	-90.1908	-243.681	0.410085	-25.4049	-258.161	1.03458	1.98423	-267.419	31.1035	-24.9453	
6	0.05	-251.915	66.0486	-19.5691	-217.244	83.4291	-29.9396	-188.938	92.5878	-41.6624	-166.569	99.6188	-53.1165	-235.856	32.6744	-94.2765	-229.331	35.4843	-115.568	-216.994	31.8108	-140.009	-205.42	21.5312	-89.4083	-187.759	31.1586	-109.505	-160.227	41.7577	-128.596	-190.35	23.5933	-71.6594	-167.654	48.8729	-74.3763	-174.097	77.0275	-48.7146	-180.74	8.43852	-52.3911	-163.968	17.7482	-73.9995	-150.79	21.491	-91.2318	-230.207	3.81683	-25.1262	-244.406	-1.93357	3.83054	-262.345	19.1309	-25.0585	
7	0.0583333	-258.687	60.9676	-17.906	-229.002	84.3278	-33.8395	-202.471	100.699	-56.7098	-184.268	111.873	-67.1624	-239.198	25.0328	-93.9745	-232.081	26.9433	-121.352	-221.265	23.5774	-141.647	-206.523	21.558	-91.9705	-189.446	32.3639	-113.668	-168.669	50.2431	-138.287	-188.996	29.0149	-76.3881	-171.245	57.8097	-80.2218	-180.469	83.7182	-59.2711	-175.036	17.8397	-58.4321	-165.126	27.8716	-75.8316	-151.226	32.5876	-99.7327	-216.527	1.98296	-22.6431	-231.086	-1.29216	4.27212	-258.169	12.9838	-24.6914	
8	0.0666667	-260.603	54.4029	-19.668	-235.87	76.2079	-42.2017	-215.711	89.4464	-65.5646	-198.026	99.7483	-85.3843	-250.631	13.0292	-89.6346	-245.325	11.2326	-120.234	-241.614	8.83618	-147.179	-219.165	10.9583	-91.2379	-200.251	22.1251	-120.716	-187.192	36.6777	-144.362	-196.15	24.1196	-82.3798	-185.551	53.9193	-89.1804	-199.473	79.6385	-65.1278	-182.449	13.3966	-60.5313	-175.873	21.9794	-83.6595	-165.67	23.6648	-108.394	-218.162	0.218394	-24.7214	-226.568	-1.48083	9.57422	-256.284	8.35418	-18.1106	
9	0.075	-267.721	45.1984	-17.4364	-249.912	65.9523	-50.7731	-234.451	74.8062	-78.8192	-216.972	76.7948	-97.1793	-271.924	-4.32548	-85.2968	-268.726	-9.84037	-109.82	-267.633	-16.2019	-138.374	-241.362	-8.18547	-92.8625	-231.32	-2.04185	-122.84	-218.504	9.20964	-149.626	-218.858	7.47753	-88.7752	-205.699	34.7699	-97.9133	-215.78	60.2591	-71.6325	-204.219	-2.2179	-66.0466	-196.197	0.960334	-94.7027	-193.929	1.08318	-117.809	-226.121	-11.16	-22.9612	-231.363	-8.16544	7.30406	-265.894	0.741693	-11.6219	
10	0.0833333	-282.297	31.6637	-22.0005	-266.171	43.5876	-56.7977	-252.022	44.0673	-89.9811	-240.131	43.8878	-113.487	-297.576	-27.4512	-77.8499	-303.614	-34.978	-102.55	-303.201	-44.531	-132.493	-269.97	-35.8314	-89.3935	-264.716	-34.4671	-118.775	-252.092	-28.5383	-149.39	-240.651	-21.1682	-87.4706	-233.388	5.67328	-103.192	-237.796	33.9914	-76.3152	-230.287	-29.1863	-68.8443	-228.066	-31.3309	-97.6857	-228.654	-32.7372	-121.496	-245.703	-29.0041	-21.4415	-245.925	-20.2591	6.75847	-280.323	-13.176	-7.59072	
11	0.0916667	-289.834	22.7433	-21.4462	-279.49	32.0276	-61.9901	-268.654	26.5998	-95.8077	-257.224	19.8276	-116.254	-324.132	-37.7409	-72.2207	-332.707	-47.2386	-97.6911	-335.38	-55.8835	-121.405	-297.096	-50.646	-81.942	-292.916	-54.7767	-116.443	-286.028	-50.7047	-150.437	-267.759	-41.1358	-85.0525	-260.364	-16.6875	-105.156	-252.922	11.5659	-83.1562	-258.03	-50.1221	-73.1241	-257.412	-51.7784	-95.1899	-258.655	-59.1413	-122.195	-266.691	-44.1392	-21.1149	-259.292	-31.9703	9.09653	-297.792	-18.0132	-7.6036	
12	0.1	-298.912	21.4399	-24.8715	-284.856	25.8836	-61.3341	-278.192	23.9966	-98.0938	-271.236	17.5959	-121.186	-346.623	-29.0682	-69.566	-358.769	-34.3682	-92.188	-365.129	-42.5507	-114.841	-323.473	-46.761	-81.1157	-321.23	-51.1365	-115.558	-315.504	-49.5456	-144.76	-290.907	-44.3271	-86.423	-281.765	-17.6264	-105.832	-268.072	6.46216	-83.9484	-277.341	-55.192	-69.877	-282.317	-57.2619	-94.8009	-290.951	-62.7864	-121.915	-288.153	-41.7651	-22.846	-274.563	-30.7409	9.83074	-308.018	-14.5485	-4.19229	
13	0.108333	-298.008	36.1416	-21.0643	-287.036	37.8742	-63.026	-282.347	32.2071	-98.1289	-276.081	24.3288	-121.74	-357.815	-3.2532	-64.838	-372.63	-2.64367	-86.703	-387.119	-6.44739	-113.713	-344.469	-25.2751	-81.119	-346.27	-24.2978	-113.621	-342.203	-21.9222	-142.738	-315.188	-27.3324	-87.6836	-299.351	-10.1966	-106.04	-278.313	12.8028	-87.1897	-306.821	-42.6197	-73.0202	-311.112	-44.2967	-100.619	-320.669	-43.3938	-121.57	-305.611	-31.8096	-23.0299	-291.378	-26.68	8.16891	-318.423	-1.21895	0.568756	
14	0.116667	-295.096	49.7017	-18.701	-282.312	48.7182	-57.477	-279.651	43.0238	-94.3027	-278.582	32.6054	-117.465	-366.18	35.6027	-63.7683	-378.011	41.5202	-84.306	-392.914	45.9443	-107.516	-359.557	11.9286	-74.8256	-363.221	14.9051	-108.448	-358.793	15.9588	-144.622	-334.448	-2.05337	-84.8504	-312.195	9.87814	-105.083	-286.15	23.0472	-88.142	-331.079	-23.6785	-73.2949	-336.647	-19.8024	-94.934	-348.229	-14.3833	-121.82	-323.491	-17.0774	-19.4812	-307.464	-13.1212	6.90909	-326.259	18.0922	0.373959	
